Genre:Action | Adventure | Drama
Language:English  http://www.imdb.com/title/tt1456941/
Source:BluRay.x264-aAF


Format : Matroska
File size : 1.93 GiB
Duration : 1h 43mn
Overall bit rate : 2 667 Kbps


Video
Format settings, CABAC : Yes
Format settings, ReFrames : 4 frames
Format settings, GOP : M=4, N=16
Codec ID : V_MPEG4/ISO/AVC
Duration : 1h 43mn
Bit rate : 2 300 Kbps
Width : 1 280 pixels
Height : 528 pixels
Display aspect ratio : 2.40:1
Frame rate mode : Variable
Frame rate : 24.000 fps
Color space : YUV
Chroma subsampling : 4:2:0
Bit depth : 8 bits
Scan type : Progressive
Bits/(Pixel*Frame) : 0.142
Stream size : 1.61 GiB (84%)
Writing library : x264


Audio
ID : 2
Format : AC-3
Format/Info : Audio Coding 3
Mode extension : CM (complete main)
Codec ID : A_AC3
Duration : 1h 43mn
Bit rate mode : Constant
Bit rate : 384 Kbps
Channel(s) : 6 channels
Channel positions : Front: L C R, Side: L R, LFE
Sampling rate : 48.0 KHz
Bit depth : 16 bits
Video delay : -1mn 5s
Stream size : 285 MiB (14%)
Language : English


Plot:
When their country is invaded and their families are taken, eight unlikely high school teenagers band together to fight
 
http://rapidhdd.com/images/144370vlcsnap-2010-12-25-21h30m19s186.png 
http://www.rapidhdd.com/images/15815vlcsnap-2010-12-25-21h31m16s189.png 
http://www.rapidhdd.com/images/336046vlcsnap-2010-12-25-21h30m29s228.png 
http://www.rapidhdd.com/images/959892vlcsnap-2010-12-25-21h30m52s200.png 
http://www.rapidhdd.com/images/905322vlcsnap-2010-12-25-21h31m52s23.png